<?xml version="1.0" standalone="no"?>
<!DOCTYPE svg PUBLIC "-//W3C//DTD SVG 20010904//EN"
 "http://www.w3.org/TR/2001/REC-SVG-20010904/DTD/svg10.dtd">
<svg version="1.0" xmlns="http://www.w3.org/2000/svg"
 width="1654.000000pt" height="2339.000000pt" viewBox="0 0 1654.000000 2339.000000"
 preserveAspectRatio="xMidYMid meet">
<metadata>
Created by potrace 1.16, written by Peter Selinger 2001-2019
</metadata>
<g transform="translate(0.000000,2339.000000) scale(0.100000,-0.100000)"
fill="#000000" stroke="none">
<path d="M4135 22420 c-4 -6 -1 -17 5 -25 17 -21 -5 -138 -31 -161 -25 -22
-16 -34 26 -34 37 0 52 14 37 33 -27 32 25 108 64 93 13 -5 15 -14 9 -44 -4
-20 -13 -41 -21 -45 -29 -17 -15 -37 26 -37 33 0 40 3 40 20 0 11 -4 20 -9 20
-5 0 -4 20 1 45 12 58 0 75 -55 75 l-40 0 6 35 c5 33 4 35 -23 35 -16 0 -32
-5 -35 -10z"/>
<path d="M5124 22419 c-3 -6 -1 -16 5 -22 6 -6 11 -18 11 -28 0 -13 -8 -15
-50 -11 -44 4 -52 2 -80 -26 -23 -24 -30 -39 -30 -71 0 -53 23 -65 115 -62 70
2 96 15 70 35 -14 11 -10 45 20 174 5 19 1 22 -24 22 -16 0 -33 -5 -37 -11z
m-16 -101 c19 -19 14 -55 -10 -72 -27 -19 -59 -21 -76 -4 -18 18 -15 36 13 63
26 27 54 32 73 13z"/>
<path d="M6313 22414 c-3 -9 0 -20 7 -24 17 -10 -12 -140 -34 -152 -27 -15
-19 -38 13 -38 25 0 31 5 36 30 4 17 10 30 15 30 13 0 31 -27 28 -41 -2 -10 8
-14 36 -14 42 0 61 20 29 32 -26 9 -53 34 -53 49 0 7 18 20 40 30 53 24 52 44
-1 44 -32 0 -42 -4 -46 -19 -3 -11 -11 -22 -18 -24 -10 -4 -10 6 0 54 l13 59
-30 0 c-17 0 -31 -6 -35 -16z"/>
<path d="M1593 22413 c-7 -3 -13 -13 -13 -24 0 -12 -10 -23 -25 -29 -28 -11
-33 -28 -9 -37 12 -4 14 -16 8 -59 -6 -51 -5 -54 19 -63 23 -9 82 -2 106 13
19 12 13 39 -6 31 -10 -5 -33 -10 -50 -13 -29 -4 -33 -2 -33 19 0 55 10 69 50
69 36 0 67 20 53 33 -3 4 -24 7 -46 7 -37 0 -39 2 -33 24 6 26 -1 36 -21 29z"/>
<path d="M5730 22386 c0 -19 -3 -41 -6 -50 -4 -10 -1 -16 8 -16 8 0 21 21 30
50 l16 50 -24 0 c-21 0 -24 -5 -24 -34z"/>
<path d="M5923 22413 c-7 -3 -13 -13 -13 -24 0 -12 -10 -23 -25 -29 -28 -11
-33 -28 -9 -37 12 -4 14 -16 8 -59 -6 -51 -5 -54 19 -63 23 -9 82 -2 106 13
19 12 13 39 -6 31 -10 -5 -33 -10 -50 -13 -29 -4 -33 -2 -33 19 0 55 10 69 50
69 36 0 67 20 53 33 -3 4 -24 7 -46 7 -37 0 -39 2 -33 24 6 26 -1 36 -21 29z"/>
<path d="M885 22388 c-10 -48 -10 -61 3 -65 7 -3 17 8 23 26 7 20 18 31 30 31
10 0 17 -5 14 -12 -2 -7 -9 -39 -15 -70 -9 -46 -15 -57 -33 -60 -12 -2 -23
-11 -25 -21 -3 -16 3 -18 59 -15 63 3 93 24 50 35 -24 6 -25 11 -10 86 10 46
16 57 31 57 15 0 19 -6 16 -27 -5 -46 24 -34 38 15 l13 42 -94 0 c-90 0 -95
-1 -100 -22z"/>
<path d="M4587 22403 c-15 -14 -6 -23 24 -23 21 0 30 -4 26 -13 -2 -7 -10 -38
-17 -70 -10 -49 -14 -57 -34 -57 -13 0 -29 -7 -36 -15 -17 -21 3 -27 81 -23
49 2 64 7 64 18 0 8 -10 16 -22 18 -27 4 -28 17 -10 87 11 43 17 51 42 55 16
3 30 11 33 18 3 9 -16 12 -70 12 -41 0 -78 -3 -81 -7z"/>
<path d="M3533 22358 c-56 -15 -93 -91 -65 -135 12 -20 55 -31 84 -22 16 4 28
5 28 1 -1 -21 -23 -36 -62 -41 -29 -4 -43 -11 -43 -21 0 -11 11 -15 43 -14 61
1 88 31 106 118 8 41 21 73 30 78 33 19 18 38 -27 37 -24 -1 -48 0 -53 3 -5 3
-23 1 -41 -4z m51 -44 c21 -20 20 -26 -5 -58 -23 -29 -50 -33 -73 -10 -21 20
-20 26 5 58 23 29 50 33 73 10z"/>
<path d="M1101 22331 c-61 -57 -31 -137 49 -135 58 2 90 13 90 30 0 14 -8 15
-45 10 -25 -4 -54 -4 -65 -1 -40 13 -18 24 53 27 l72 3 -2 35 c-2 43 -24 60
-79 60 -32 0 -49 -7 -73 -29z m105 -16 c17 -13 15 -14 -36 -14 -51 0 -53 1
-36 14 11 8 27 15 36 15 9 0 25 -7 36 -15z"/>
<path d="M1342 22344 c-27 -18 -29 -61 -4 -68 9 -2 32 -8 50 -11 18 -4 31 -12
29 -18 -6 -19 -62 -20 -80 -3 -9 9 -20 16 -26 16 -12 0 -27 -48 -18 -56 3 -3
30 -6 60 -7 115 -2 151 80 44 102 -17 4 -31 11 -30 16 4 16 49 17 62 1 17 -20
41 -9 41 20 0 22 -4 24 -53 24 -31 0 -61 -6 -75 -16z"/>
<path d="M1955 22350 c-4 -6 -2 -17 4 -24 15 -18 2 -78 -21 -94 -25 -18 -14
-32 27 -32 37 0 52 14 37 33 -27 32 25 108 64 93 13 -5 15 -14 9 -44 -3 -20
-13 -42 -21 -48 -24 -19 -16 -34 20 -34 37 0 55 15 39 31 -7 7 -6 26 0 54 15
64 2 75 -84 75 -37 0 -71 -5 -74 -10z"/>
<path d="M2170 22347 c0 -7 5 -18 10 -23 7 -7 8 -25 1 -53 -8 -37 -7 -45 10
-62 14 -14 27 -18 42 -13 12 4 57 6 99 6 76 -2 99 7 80 31 -13 16 -4 73 14 88
25 21 32 0 19 -61 l-13 -60 29 0 c28 0 29 2 24 38 -6 39 10 82 34 90 14 5 14
-9 -5 -95 -6 -31 -5 -33 19 -33 29 0 44 17 29 32 -6 6 -6 25 0 54 15 70 12 72
-96 72 -72 0 -96 -3 -100 -14 -3 -8 -1 -14 5 -14 7 0 8 -15 4 -42 -8 -50 -18
-63 -39 -55 -11 5 -13 13 -6 39 23 92 24 88 -14 88 -41 0 -56 -18 -32 -36 25
-18 12 -72 -19 -86 -28 -13 -59 -3 -52 16 3 7 9 34 12 60 l7 46 -31 0 c-19 0
-31 -5 -31 -13z"/>
<path d="M2621 22331 c-61 -57 -31 -137 49 -135 58 2 90 13 90 30 0 14 -8 15
-45 10 -25 -4 -54 -4 -65 -1 -40 13 -18 24 53 27 l72 3 -2 35 c-2 43 -24 60
-79 60 -32 0 -49 -7 -73 -29z m105 -16 c17 -13 15 -14 -36 -14 -51 0 -53 1
-36 14 11 8 27 15 36 15 9 0 25 -7 36 -15z"/>
<path d="M2844 22348 c-4 -6 0 -16 9 -23 25 -18 12 -72 -21 -88 -43 -21 -25
-32 51 -32 57 0 72 3 72 15 0 10 -12 16 -32 18 -18 2 -33 8 -33 13 0 36 63 85
94 73 23 -9 39 5 25 22 -14 16 -52 18 -80 4 -13 -7 -19 -7 -19 0 0 14 -57 13
-66 -2z"/>
<path d="M3054 22326 c-38 -38 -43 -72 -16 -106 35 -43 129 -25 158 32 32 61
2 108 -67 108 -33 0 -47 -6 -75 -34z m104 -8 c19 -19 14 -55 -10 -72 -61 -43
-119 13 -68 64 22 22 60 26 78 8z"/>
<path d="M3704 22326 c-38 -38 -43 -72 -16 -106 35 -43 129 -25 158 32 32 61
2 108 -67 108 -33 0 -47 -6 -75 -34z m104 -8 c19 -19 14 -55 -10 -72 -61 -43
-119 13 -68 64 22 22 60 26 78 8z"/>
<path d="M3942 22344 c-27 -18 -29 -61 -4 -68 9 -2 32 -8 50 -11 18 -4 31 -12
29 -18 -6 -19 -62 -20 -80 -3 -9 9 -20 16 -26 16 -12 0 -27 -48 -18 -56 3 -3
30 -6 60 -7 115 -2 151 80 44 102 -17 4 -31 11 -30 16 4 16 49 17 62 1 17 -20
41 -9 41 20 0 22 -4 24 -53 24 -31 0 -61 -6 -75 -16z"/>
<path d="M5224 22326 c-38 -38 -43 -72 -16 -106 35 -43 129 -25 158 32 32 61
2 108 -67 108 -33 0 -47 -6 -75 -34z m104 -8 c19 -19 14 -55 -10 -72 -61 -43
-119 13 -68 64 22 22 60 26 78 8z"/>
<path d="M5425 22350 c-4 -6 -2 -17 4 -24 15 -18 2 -78 -21 -94 -25 -18 -14
-32 27 -32 37 0 52 14 37 33 -27 32 25 108 64 93 13 -5 15 -14 9 -44 -3 -20
-13 -42 -21 -48 -24 -19 -16 -34 20 -34 37 0 55 15 39 31 -7 7 -6 26 0 54 15
64 2 75 -84 75 -37 0 -71 -5 -74 -10z"/>
<path d="M6505 22350 c-4 -6 -2 -17 4 -24 15 -18 2 -78 -21 -94 -25 -18 -14
-32 27 -32 37 0 52 14 37 33 -27 32 25 108 64 93 13 -5 15 -14 9 -44 -3 -20
-13 -42 -21 -48 -24 -19 -16 -34 20 -34 37 0 55 15 39 31 -7 7 -6 26 0 54 15
64 2 75 -84 75 -37 0 -71 -5 -74 -10z"/>
<path d="M6744 22326 c-38 -38 -43 -72 -16 -106 35 -43 129 -25 158 32 32 61
2 108 -67 108 -33 0 -47 -6 -75 -34z m104 -8 c19 -19 14 -55 -10 -72 -61 -43
-119 13 -68 64 22 22 60 26 78 8z"/>
<path d="M6934 22349 c-3 -6 -1 -16 5 -22 6 -6 11 -37 11 -69 0 -50 3 -58 18
-58 11 0 24 11 30 25 6 14 16 25 22 25 5 0 10 -11 10 -25 0 -18 5 -25 19 -25
15 0 27 16 47 60 15 33 33 65 40 71 21 17 7 29 -32 29 -34 0 -35 -2 -30 -27 3
-16 2 -35 -3 -42 -8 -12 -11 -9 -16 12 -9 34 -32 35 -47 2 -6 -14 -15 -25 -20
-25 -14 0 -9 40 7 46 8 4 15 12 15 20 0 17 -65 20 -76 3z"/>
</g>
</svg>
